<svg xmlns="http://www.w3.org/2000/svg" width="30" height="24" viewBox="0 0 30 24">
    <g fill="#29B38D" fill-rule="evenodd">
        <path d="M21.473 23.07l8.16-12.5c.318-.487.18-1.14-.307-1.46-.171-.111-.372-.17-.576-.17h-6.424V1.083c0-.582-.473-1.055-1.055-1.055-.356 0-.689.18-.883.479l-8.16 12.5c-.319.488-.181 1.141.306 1.46.172.112.372.171.577.171h6.424v7.855c0 .583.472 1.055 1.055 1.055.356 0 .688-.18.883-.478z"/>
        <path d="M11.844 18.914c1.165 0 2.11.945 2.11 2.11v.056c0 1.165-.945 2.11-2.11 2.11H4.9c-1.165 0-2.11-.945-2.11-2.11v-.056c0-1.165.945-2.11 2.11-2.11h6.944zm-4.186-8.55c1.165 0 2.11.945 2.11 2.11v.056c0 1.165-.945 2.11-2.11 2.11H2.109C.944 14.64 0 13.694 0 12.53v-.056c0-1.165.944-2.11 2.11-2.11h5.548zm4.186-8.55c1.165 0 2.11.944 2.11 2.11v.056c0 1.165-.945 2.11-2.11 2.11H4.9c-1.165 0-2.11-.945-2.11-2.11v-.057c0-1.165.945-2.109 2.11-2.109h6.944z" opacity=".5"/>
    </g>
</svg>
