<svg xmlns="http://www.w3.org/2000/svg" width="30" height="30" viewBox="0 0 30 30">
    <g fill="#3897F0" fill-rule="evenodd">
        <path d="M20.625 11.25c5.178 0 9.375 4.197 9.375 9.375S25.803 30 20.625 30c-2.11 0-4.059-.698-5.626-1.875C13.434 29.302 11.486 30 9.375 30 4.197 30 0 25.803 0 20.625s4.197-9.375 9.375-9.375c2.11 0 4.058.697 5.625 1.874 1.566-1.176 3.514-1.874 5.625-1.874zm0 3.75c-1.138 0-2.217.338-3.125.946.795 1.377 1.25 2.975 1.25 4.679 0 1.704-.455 3.302-1.25 4.679.91.61 1.988.946 3.125.946 3.107 0 5.625-2.518 5.625-5.625S23.732 15 20.625 15z" opacity=".5"/>
        <circle cx="15" cy="9.375" r="9.375"/>
    </g>
</svg>
