<svg xmlns="http://www.w3.org/2000/svg" width="62" height="62" viewBox="0 0 62 62">
    <g fill="#29B38D" fill-rule="evenodd">
        <rect width="49.6" height="62" x="6.2" opacity=".5" rx="8.267"/>
        <path d="M28.933 43.4h4.134c2.282 0 4.133 1.85 4.133 4.133V62H24.8V47.533c0-2.282 1.85-4.133 4.133-4.133zM47.628 0c3.629 0 6.834 2.367 7.9 5.836l6.129 19.916.343 1.115-.004.227c-.12 3.319-2.848 5.973-6.196 5.973s-6.076-2.654-6.196-5.973l-.004-.228-.004.228c-.117 3.243-2.725 5.852-5.969 5.969l-.227.004c-3.424 0-6.2-2.776-6.2-6.2 0 3.424-2.776 6.2-6.2 6.2-3.424 0-6.2-2.776-6.2-6.2 0 3.424-2.776 6.2-6.2 6.2-3.424 0-6.2-2.776-6.2-6.2v-.001l-.004.228c-.12 3.319-2.848 5.973-6.196 5.973S.124 30.413.004 27.094L0 26.867l.475-1.544L6.471 5.836C7.538 2.366 10.743 0 14.372 0h33.256z"/>
    </g>
</svg>
