<svg xmlns="http://www.w3.org/2000/svg" width="62" height="62" viewBox="0 0 62 62">
    <g fill="#F43C20" fill-rule="evenodd">
        <path d="M6.889 55.111h51.667c1.902 0 3.444 1.542 3.444 3.445C62 60.458 60.458 62 58.556 62H3.444C1.542 62 0 60.458 0 58.556V3.444C0 1.542 1.542 0 3.444 0 5.347 0 6.89 1.542 6.89 3.444v51.667z" opacity=".5"/>
        <path d="M19.735 40.245c-1.301 1.387-3.48 1.458-4.869.157-1.387-1.301-1.458-3.481-.157-4.869l12.917-13.778c1.258-1.342 3.35-1.458 4.749-.264l10.194 8.7 13.283-16.825c1.179-1.493 3.345-1.748 4.838-.57 1.493 1.18 1.748 3.345.569 4.838l-15.5 19.634c-1.21 1.533-3.453 1.754-4.94.485l-10.415-8.888-10.669 11.38z"/>
    </g>
</svg>
