<svg xmlns="http://www.w3.org/2000/svg" width="27" height="30" viewBox="0 0 27 30">
    <path fill="#5D1ED8" fill-rule="evenodd" d="M21.319 0v2.197h2.048l-3.808 3.92c-1.586-1.53-3.714-2.46-6.056-2.46-2.335 0-4.463.93-6.049 2.453l-.609-.627 1.5-1.543-1.506-1.55-1.5 1.537L3.655 2.19h2.034V0H0v5.855h2.135V3.734l1.693 1.742-1.513 1.557 1.506 1.55 1.512-1.557.736.758c-.917 1.44-1.452 3.162-1.452 5.008 0 4.678 3.413 8.535 7.816 9.08v3.733h-2.135v2.198h2.135V30h2.134v-2.197h2.135v-2.198h-2.135v-3.727c4.403-.544 7.816-4.395 7.816-9.079 0-1.846-.535-3.568-1.452-5.001l3.934-4.05v2.107H27V0h-5.681zm-7.816 19.75c-3.72 0-6.751-3.12-6.751-6.95 0-3.831 3.03-6.952 6.751-6.952 3.72 0 6.752 3.121 6.752 6.951 0 3.837-3.031 6.95-6.752 6.95z"/>
</svg>
