<svg xmlns="http://www.w3.org/2000/svg" width="61" height="61" viewBox="0 0 61 61">
    <g fill="#29B38D" fill-rule="evenodd">
        <path d="M28.374 37.27l-6.187 6.187c-1.14 1.139-1.14 2.986 0 4.125 1.139 1.139 2.986 1.139 4.125 0l6.187-6.188 2.062 2.063c2.278 2.278 2.278 5.971 0 8.25l-8.25 8.249c-2.278 2.278-5.971 2.278-8.249 0l-8.25-8.25c-2.278-2.278-2.278-5.971 0-8.25l8.25-8.249c2.278-2.278 5.971-2.278 8.25 0l2.062 2.063z" opacity=".5" transform="translate(-4 -4)"/>
        <path d="M40.748 33.145l6.188-6.187c1.139-1.14 1.139-2.986 0-4.125-1.14-1.14-2.986-1.14-4.125 0l-6.187 6.187-2.063-2.062c-2.278-2.278-2.278-5.972 0-8.25l8.25-8.25c2.278-2.278 5.971-2.278 8.25 0l8.249 8.25c2.278 2.278 2.278 5.972 0 8.25l-8.25 8.25c-2.278 2.277-5.971 2.277-8.25 0l-2.062-2.063z" transform="translate(-4 -4)"/>
        <path d="M26.812 4.625c1.61 0 2.917 1.306 2.917 2.917v5.833c0 1.611-1.306 2.917-2.917 2.917-1.61 0-2.917-1.306-2.917-2.917V7.542c0-1.611 1.306-2.917 2.917-2.917zM4.479 26.958c0-1.611 1.306-2.917 2.917-2.917h5.833c1.611 0 2.917 1.306 2.917 2.917 0 1.61-1.306 2.916-2.917 2.916H7.396c-1.61 0-2.917-1.305-2.917-2.916zm7.396-14.437c1.139-1.14 2.986-1.14 4.125 0l4.124 4.125c1.14 1.139 1.14 2.985 0 4.125-1.139 1.139-2.985 1.139-4.124 0l-4.125-4.125c-1.14-1.14-1.14-2.986 0-4.125zM64.79 42.603c0-1.611-1.306-2.917-2.917-2.917h-5.834c-1.61 0-2.916 1.306-2.916 2.917 0 1.61 1.306 2.916 2.916 2.916h5.834c1.61 0 2.916-1.306 2.916-2.916zM42.456 64.935c1.61 0 2.917-1.306 2.917-2.917v-5.833c0-1.61-1.306-2.917-2.917-2.917-1.611 0-2.917 1.306-2.917 2.917v5.833c0 1.611 1.306 2.917 2.917 2.917zm14.437-7.395c1.139-1.14 1.139-2.986 0-4.125l-4.125-4.125c-1.14-1.139-2.986-1.139-4.125 0-1.139 1.14-1.139 2.986 0 4.125l4.125 4.125c1.139 1.139 2.986 1.139 4.125 0z" opacity=".5" transform="translate(-4 -4)"/>
    </g>
</svg>
