<svg xmlns="http://www.w3.org/2000/svg" width="62" height="48" viewBox="0 0 62 48">
    <g fill="#FFAB31" fill-rule="evenodd">
        <path d="M23.978 0c5.885 0 10.657 4.771 10.657 10.657 0 5.885-4.772 10.657-10.657 10.657-5.886 0-10.657-4.772-10.657-10.657C13.321 4.77 18.092 0 23.978 0zM50.62 0c1.471 0 2.664 1.193 2.664 2.664l-.001 5.328h5.33c1.47 0 2.664 1.193 2.664 2.665 0 1.471-1.193 2.664-2.665 2.664l-5.329-.001.001 5.33c0 1.47-1.193 2.664-2.664 2.664-1.472 0-2.664-1.193-2.664-2.665l-.001-5.329-5.328.001c-1.471 0-2.664-1.193-2.664-2.664 0-1.472 1.193-2.664 2.664-2.664l5.328-.001V2.664C47.956 1.193 49.149 0 50.62 0z" opacity=".5"/>
        <path d="M.002 45.822c1.032-12.715 11.353-19.18 23.931-19.18 12.756 0 23.236 6.11 24.017 19.182.031.521 0 2.132-2.001 2.132H1.939c-.669 0-1.994-1.441-1.937-2.134z"/>
    </g>
</svg>
