<svg xmlns="http://www.w3.org/2000/svg" width="60" height="60" viewBox="0 0 60 60">
    <g fill="none" fill-rule="evenodd">
        <path fill="#F03863" d="M19.2 45.877v5.561c-4.584-2.313-8.325-6.054-10.638-10.638h5.561c1.359 1.994 3.083 3.718 5.077 5.077zm21.6 5.561v-5.561c1.994-1.359 3.718-3.083 5.077-5.077h5.561c-2.313 4.584-6.054 8.325-10.638 10.638zM19.2 8.562v5.561c-1.994 1.359-3.718 3.083-5.077 5.077H8.562c2.313-4.584 6.054-8.325 10.638-10.638zM51.438 19.2h-5.561c-1.359-1.994-3.083-3.718-5.077-5.077V8.562c4.584 2.313 8.325 6.054 10.638 10.638z" opacity=".5"/>
        <circle cx="30" cy="8.4" r="6" stroke="#F03863" stroke-width="4.8"/>
        <circle cx="30" cy="51.6" r="6" stroke="#F03863" stroke-width="4.8"/>
        <circle cx="51.6" cy="30" r="6" stroke="#F03863" stroke-width="4.8"/>
        <circle cx="8.4" cy="30" r="6" stroke="#F03863" stroke-width="4.8"/>
    </g>
</svg>
