<svg xmlns="http://www.w3.org/2000/svg" width="19" height="19" viewBox="0 0 19 19">
    <g fill="#FFF" fill-rule="evenodd">
        <path d="M4.827 9.293c.822-.822 2.155-.822 2.977 0l.744.744-2.232 2.233c-.384.384-.41.99-.077 1.404l.077.085c.41.411 1.077.411 1.488 0l2.233-2.233.745.744c.822.823.822 2.156 0 2.978l-2.978 2.977c-.822.822-2.155.822-2.977 0L1.85 15.248c-.822-.822-.822-2.155 0-2.978l2.977-2.977z" opacity=".5" transform="translate(-.5 -.5)"/>
        <path d="M12.27 1.85c.823-.822 2.156-.822 2.978 0l2.977 2.977c.822.822.822 2.155 0 2.977l-2.977 2.978c-.822.822-2.155.822-2.978 0l-.744-.745 2.233-2.233c.384-.383.41-.99.077-1.403l-.077-.085c-.411-.411-1.078-.411-1.489 0l-2.233 2.232-.744-.744c-.822-.822-.822-2.155 0-2.977L12.27 1.85z" transform="translate(-.5 -.5)"/>
    </g>
</svg>
