<svg xmlns="http://www.w3.org/2000/svg" width="31" height="30" viewBox="0 0 31 30">
    <path fill="#FFF" fill-rule="evenodd" d="M23.096 9.473c4.232 0 7.404 2.797 7.404 8.807V29.5h-6.43V19.03c0-2.63-.93-4.423-3.258-4.423-1.777 0-2.835 1.21-3.3 2.377-.17.42-.211 1.002-.211 1.587V29.5H10.87s.084-17.73 0-19.567h6.43v2.772c.854-1.333 2.382-3.232 5.796-3.232zm-15.786.46v19.566H.88V9.933h6.43zM4.138.5c2.2 0 3.554 1.461 3.596 3.38 0 1.879-1.396 3.382-3.639 3.382h-.04C1.894 7.262.5 5.759.5 3.88.5 1.96 1.938.5 4.138.5z"/>
</svg>
