<svg xmlns="http://www.w3.org/2000/svg" width="31" height="29" viewBox="0 0 31 29">
    <g fill="#FFF" fill-rule="evenodd">
        <path d="M25 0c.92 0 1.667.746 1.667 1.667v15c0 .92-.747 1.666-1.667 1.666H5c-.92 0-1.667-.746-1.667-1.666v-15C3.333.747 4.08 0 5 0h20zM12.5 8.333h-5c-.46 0-.833.373-.833.834 0 .46.373.833.833.833h5c.46 0 .833-.373.833-.833 0-.46-.373-.834-.833-.834zM17.5 5h-10c-.46 0-.833.373-.833.833 0 .46.373.834.833.834h10c.46 0 .833-.373.833-.834 0-.46-.373-.833-.833-.833z" opacity=".5" transform="translate(.5 .5)"/>
        <path d="M1.321 7.62L15 17.5l13.679-9.88c.373-.269.894-.185 1.163.189.103.142.158.312.158.487V25c0 1.84-1.492 3.333-3.333 3.333H3.333C1.493 28.333 0 26.841 0 25V8.296c0-.46.373-.833.833-.833.176 0 .346.055.488.158z" transform="translate(.5 .5)"/>
    </g>
</svg>
