<svg xmlns="http://www.w3.org/2000/svg" width="26" height="23" viewBox="0 0 26 23">
    <path fill="#FFF" fill-rule="evenodd" d="M12.65 6.259l.057.936-.942-.115c-3.426-.44-6.419-1.93-8.96-4.433L1.562 1.405l-.32.917C.565 4.367.998 6.526 2.41 7.98c.753.802.583.917-.716.439-.452-.153-.847-.267-.885-.21-.131.134.32 1.873.678 2.56.49.956 1.487 1.892 2.58 2.446l.921.44-1.091.019c-1.055 0-1.092.02-.98.42.377 1.242 1.864 2.561 3.521 3.134l1.167.402-1.016.611c-1.506.88-3.276 1.376-5.045 1.414-.847.02-1.544.096-1.544.153 0 .191 2.297 1.261 3.633 1.682 4.01 1.242 8.772.707 12.349-1.414 2.541-1.51 5.083-4.51 6.269-7.415.64-1.548 1.28-4.376 1.28-5.732 0-.88.056-.994 1.11-2.045.621-.612 1.205-1.28 1.318-1.472.188-.363.17-.363-.79-.038-1.6.574-1.827.497-1.036-.363.584-.611 1.28-1.72 1.28-2.044 0-.058-.282.038-.602.21-.34.19-1.092.477-1.657.65l-1.016.324-.923-.63c-.508-.344-1.223-.726-1.6-.841-.96-.268-2.428-.23-3.294.076-2.353.86-3.84 3.077-3.671 5.504z"/>
</svg>
