<svg xmlns="http://www.w3.org/2000/svg" width="17" height="10" viewBox="0 0 17 10">
    <g fill="#000" fill-rule="evenodd">
        <path d="M13.274 2.254a1.503 1.503 0 1 1 0 3.005 1.503 1.503 0 0 1 0-3.005zm-9.517 0a1.503 1.503 0 1 1 0 3.005 1.503 1.503 0 0 1 0-3.005zM8.515 0a2.004 2.004 0 1 1 0 4.007 2.004 2.004 0 0 1 0-4.007z" opacity=".3"/>
        <path d="M3.375 6.01l.129.003a6.229 6.229 0 0 0-1.205 3.003H.273c-.094 0-.28-.203-.273-.3C.146 6.921 1.601 6.01 3.375 6.01zm10.268 0c1.799 0 3.276.862 3.386 2.705.005.074 0 .301-.282.301h-2.015a6.229 6.229 0 0 0-1.207-3.004l.118-.001zM8.506 5.01c2.664 0 4.854 1.149 5.017 3.606.006.098 0 .401-.418.401H3.91c-.14 0-.416-.27-.404-.401.215-2.39 2.371-3.606 4.999-3.606z"/>
    </g>
</svg>
