<svg xmlns="http://www.w3.org/2000/svg" width="13" height="15" viewBox="0 0 13 15">
    <g fill="none" fill-rule="evenodd">
        <path fill="#000" d="M10 0c.789 0 1.429.64 1.429 1.429V13.57H7.5V11.43a.714.714 0 0 0-.714-.715H6.07a.714.714 0 0 0-.714.715v2.142H1.43V1.43C1.429.639 2.069 0 2.857 0H10zM5 7.143h-.714a.714.714 0 0 0-.715.714v.714c0 .395.32.715.715.715H5c.394 0 .714-.32.714-.715v-.714A.714.714 0 0 0 5 7.143zm3.571 0h-.714a.714.714 0 0 0-.714.714v.714c0 .395.32.715.714.715h.714c.395 0 .715-.32.715-.715v-.714a.714.714 0 0 0-.715-.714zM5 4.286h-.714A.714.714 0 0 0 3.57 5v.714c0 .395.32.715.715.715H5c.394 0 .714-.32.714-.715V5A.714.714 0 0 0 5 4.286zm0-2.857h-.714a.714.714 0 0 0-.715.714v.714c0 .395.32.714.715.714H5c.394 0 .714-.32.714-.714v-.714A.714.714 0 0 0 5 1.429zm3.571 0h-.714a.714.714 0 0 0-.714.714v.714c0 .395.32.714.714.714h.714c.395 0 .715-.32.715-.714v-.714a.714.714 0 0 0-.715-.714z"/>
        <rect width="2.143" height="2.143" x="7.143" y="4.286" fill="#FFF" rx=".714"/>
        <path fill="#000" d="M.714 13.571h11.429c.394 0 .714.32.714.715v.285a.429.429 0 0 1-.428.429h-12A.429.429 0 0 1 0 14.571v-.285c0-.395.32-.715.714-.715z" opacity=".3"/>
    </g>
</svg>
