<svg xmlns="http://www.w3.org/2000/svg" width="8" height="15" viewBox="0 0 8 15">
    <g fill="#000" fill-rule="evenodd">
        <rect width="1.568" height="3.135" x="3.304" opacity=".3" rx=".784"/>
        <rect width="1.568" height="3.919" x="3.304" y="10.973" opacity=".3" rx=".784"/>
        <path d="M6.434 4.737a2.299 2.299 0 0 0-.857-.662 2.416 2.416 0 0 0-1.534-.201c-.173.03-.33.087-.469.17a1.16 1.16 0 0 0-.35.329.872.872 0 0 0-.141.513c0 .179.037.328.111.447.075.12.184.223.328.313.144.09.315.171.514.246.198.074.422.151.67.23.357.12.73.251 1.117.395.387.144.74.335 1.057.573.318.239.581.534.79.887.208.352.312.791.312 1.318 0 .605-.111 1.129-.335 1.57a3.133 3.133 0 0 1-.9 1.095 3.86 3.86 0 0 1-1.296.64 5.448 5.448 0 0 1-1.504.21 6.21 6.21 0 0 1-2.19-.395C1.052 12.15.467 11.777 0 11.29l1.668-1.698c.258.318.598.584 1.02.797.422.214.842.32 1.259.32.188 0 .372-.02.55-.06.18-.039.336-.104.47-.193a.97.97 0 0 0 .32-.357c.08-.15.119-.328.119-.536a.848.848 0 0 0-.149-.507c-.1-.139-.24-.265-.424-.38a3.419 3.419 0 0 0-.685-.312 35.202 35.202 0 0 0-.931-.306 8.895 8.895 0 0 1-.99-.387 3.315 3.315 0 0 1-.864-.573 2.655 2.655 0 0 1-.61-.849C.597 5.916.52 5.512.52 5.035c0-.586.12-1.087.358-1.504.238-.417.55-.76.938-1.027a4.03 4.03 0 0 1 1.31-.589 5.942 5.942 0 0 1 1.475-.186c.595 0 1.204.11 1.824.328.62.218 1.164.54 1.63.968L6.435 4.737z"/>
    </g>
</svg>
