<svg xmlns="http://www.w3.org/2000/svg" width="14" height="15" viewBox="0 0 14 15">
    <path fill="#000" fill-rule="evenodd" d="M10.66 0v1.099h1.023L9.78 3.059a4.344 4.344 0 0 0-6.053-.004l-.304-.313.75-.772-.754-.775-.75.768-.842-.868h1.017V0H0v2.928h1.067V1.867l.847.871-.756.779.752.775.757-.779.368.38a4.652 4.652 0 0 0-.726 2.503c0 2.339 1.706 4.268 3.907 4.54v1.867H5.15V13.9h1.067V15h1.068v-1.099H8.35v-1.098H7.284v-1.864c2.201-.272 3.907-2.197 3.907-4.54 0-.923-.267-1.784-.726-2.5l1.968-2.025v1.054H13.5V0h-2.84zM6.751 9.875c-1.86 0-3.376-1.56-3.376-3.475S4.89 2.924 6.752 2.924c1.86 0 3.376 1.56 3.376 3.476 0 1.918-1.516 3.475-3.376 3.475z"/>
</svg>
