<svg xmlns="http://www.w3.org/2000/svg" width="15" height="15" viewBox="0 0 15 15">
    <g fill="#000" fill-rule="evenodd">
        <path d="M1.622.044a.81.81 0 0 1 .81.811v12.973a.81.81 0 0 1-.81.81H.81a.81.81 0 0 1-.811-.81V.855a.81.81 0 0 1 .81-.81h.812zm4.054 0a.81.81 0 0 1 .81.811v12.973a.81.81 0 0 1-.81.81h-.811a.81.81 0 0 1-.81-.81V.855a.81.81 0 0 1 .81-.81h.81z"/>
        <rect width="2.432" height="14.595" x="9.994" opacity=".3" rx=".811" transform="rotate(-19 11.21 7.297)"/>
    </g>
</svg>
