<svg xmlns="http://www.w3.org/2000/svg" width="15" height="15" viewBox="0 0 15 15">
    <g fill="#000" fill-rule="evenodd">
        <rect width="12" height="15" x="1.5" opacity=".3" rx="2"/>
        <path d="M7 10.5h1a1 1 0 0 1 1 1V15H6v-3.5a1 1 0 0 1 1-1zM11.523 0a2 2 0 0 1 1.911 1.412l1.307 4.245.001.002L15 6.5l-.007.144a1.5 1.5 0 0 1-2.986 0L12 6.5l-.007.144a1.5 1.5 0 0 1-1.349 1.35L10.5 8A1.5 1.5 0 0 1 9 6.5a1.5 1.5 0 0 1-3 0 1.5 1.5 0 0 1-3 0l-.007.144a1.5 1.5 0 0 1-2.986 0L0 6.5l.258-.84.002-.005 1.306-4.243A2 2 0 0 1 3.477 0h8.046z"/>
    </g>
</svg>
