<svg xmlns="http://www.w3.org/2000/svg" xmlns:xlink="http://www.w3.org/1999/xlink" width="15" height="9" viewBox="0 0 15 9">
    <defs>
        <path id="a" d="M0 0h15v8.906H0z"/>
    </defs>
    <g fill="none" fill-rule="evenodd">
        <mask id="b" fill="#fff">
            <use xlink:href="#a"/>
        </mask>
        <use fill="#FFF" fill-opacity="0" xlink:href="#a"/>
        <path fill="#000" d="M2.015 8.484a1.029 1.029 0 0 1-1.442.046 1 1 0 0 1-.047-1.425L4.353 3.07a1.03 1.03 0 0 1 1.406-.077L8.78 5.54 12.714.615c.35-.437.991-.512 1.434-.166a1 1 0 0 1 .168 1.416L9.724 7.613a1.029 1.029 0 0 1-1.463.142L5.175 5.153l-3.16 3.331z" mask="url(#b)" opacity=".3"/>
        <path fill="#000" d="M12.977.002c.24.014.476.112.66.296l2.095 2.096a1.018 1.018 0 0 1-1.44 1.44l-1.4-1.401-1.399 1.4a1.018 1.018 0 1 1-1.44-1.439L12.15.298c.183-.184.42-.282.66-.296z" mask="url(#b)" transform="rotate(39 12.893 2.067)"/>
    </g>
</svg>
