<svg xmlns="http://www.w3.org/2000/svg" width="15" height="13" viewBox="0 0 15 13">
    <g fill="#000" fill-rule="evenodd">
        <path d="M2.5 0h10l1.667 2.083H.833z" opacity=".3"/>
        <path d="M13.333 1.667c.92 0 1.667.746 1.667 1.666v7.5c0 .92-.746 1.667-1.667 1.667h-2.5c-.833 0-1.25-1.667-3.333-1.667S5.417 12.5 4.167 12.5h-2.5C.747 12.5 0 11.754 0 10.833v-7.5c0-.92.746-1.666 1.667-1.666h11.666zM4.167 5a1.667 1.667 0 1 0 0 3.333 1.667 1.667 0 0 0 0-3.333zm6.666 0a1.667 1.667 0 1 0 0 3.333 1.667 1.667 0 0 0 0-3.333z"/>
    </g>
</svg>
