<svg xmlns="http://www.w3.org/2000/svg" width="15" height="15" viewBox="0 0 15 15">
    <g fill-rule="evenodd">
        <path d="M5.062 6.236l-.86-.86c-.159-.158-.159-.415 0-.573l.573-.573c.158-.159.415-.159.573 0l5.16 5.16c.159.158.159.415 0 .573l-.573.573c-.158.159-.415.159-.573 0l-.86-.86-4.587 4.587c-.633.633-1.66.633-2.293 0L.475 13.116c-.633-.633-.633-1.66 0-2.293l4.587-4.587zm-3.154 5.447c-.158.158-.158.415 0 .573.159.159.415.159.574 0l3.44-3.44c.158-.158.158-.415 0-.573-.159-.158-.415-.158-.574 0l-3.44 3.44z" opacity=".3"/>
        <path d="M11.942 1.65l-.139-.139c-.158-.158-.158-.415 0-.573.039-.039.085-.07.136-.09L13.987.03c.15-.06.322-.025.437.09l.195.195c.115.115.15.287.09.437l-.82 2.048c-.082.208-.318.309-.526.226-.051-.02-.097-.051-.136-.09l-.139-.139-4.586 4.587-1.147-1.147 4.587-4.586z"/>
    </g>
</svg>
