<svg xmlns="http://www.w3.org/2000/svg" width="10" height="15" viewBox="0 0 10 15">
    <g fill="#000" fill-rule="evenodd">
        <path d="M5 5a5 5 0 1 1 0 10A5 5 0 0 1 5 5zm0 2.667l-.686 1.39-1.533.222 1.11 1.082-.262 1.527L5 11.167l1.371.72-.261-1.526 1.11-1.082-1.534-.223L5 7.666z"/>
        <path d="M1.203 0h7.594a.667.667 0 0 1 .566 1.02l-.638 1.02c-.244.39-.67.627-1.13.627h-5.19c-.46 0-.886-.237-1.13-.627L.637 1.02A.667.667 0 0 1 1.203 0z" opacity=".3"/>
        <path d="M7.667 3.333c.368 0 .666.299.666.667v.721a.667.667 0 0 1-.405.613 4.89 4.89 0 0 0-5.857-.001.663.663 0 0 1-.404-.612V4c0-.368.298-.667.666-.667h5.334z" opacity=".15"/>
    </g>
</svg>
