<svg xmlns="http://www.w3.org/2000/svg" width="60" height="47" viewBox="0 0 60 47">
    <g fill="#29B38D" fill-rule="evenodd">
        <path d="M42.904 45.242L59.226 20.76a2.093 2.093 0 0 0-1.742-3.254H44.651V2.093A2.093 2.093 0 0 0 40.817.932L24.495 25.415a2.093 2.093 0 0 0 1.741 3.254H39.07V44.08a2.093 2.093 0 0 0 3.834 1.161z"/>
        <path d="M23.72 37.04a4.186 4.186 0 1 1 0 8.373H9.768a4.186 4.186 0 0 1 0-8.372h13.954zM15.35 20.298a4.186 4.186 0 1 1 0 8.372H4.186a4.186 4.186 0 1 1 0-8.372h11.163zM23.72 3.552a4.186 4.186 0 1 1 0 8.372H9.767a4.186 4.186 0 0 1 0-8.372h13.954z" opacity=".5"/>
    </g>
</svg>
