<svg xmlns="http://www.w3.org/2000/svg" width="62" height="62" viewBox="0 0 62 62">
    <g fill="#3897F0" fill-rule="evenodd">
        <path d="M42.625 23.25C53.325 23.25 62 31.924 62 42.625 62 53.325 53.326 62 42.625 62A19.29 19.29 0 0 1 31 58.126 19.287 19.287 0 0 1 19.375 62C8.675 62 0 53.326 0 42.625c0-10.7 8.674-19.375 19.375-19.375A19.29 19.29 0 0 1 31 27.124a19.288 19.288 0 0 1 11.625-3.874zm0 7.75c-2.352 0-4.582.7-6.458 1.955a19.283 19.283 0 0 1 2.583 9.67c0 3.522-.94 6.824-2.582 9.67a11.56 11.56 0 0 0 6.457 1.955c6.42 0 11.625-5.205 11.625-11.625S49.045 31 42.625 31z" opacity=".5"/>
        <circle cx="31" cy="19.375" r="19.375"/>
    </g>
</svg>
