<svg xmlns="http://www.w3.org/2000/svg" width="30" height="30" viewBox="0 0 30 30">
    <g fill="#F43C20" fill-rule="evenodd">
        <path d="M3.333 26.667h25a1.667 1.667 0 1 1 0 3.333H1.667C.747 30 0 29.254 0 28.333V1.667a1.667 1.667 0 1 1 3.333 0v25z" opacity=".5"/>
        <path d="M9.55 19.473a1.667 1.667 0 1 1-2.433-2.28l6.25-6.666a1.667 1.667 0 0 1 2.298-.128l4.933 4.21 6.427-8.142a1.667 1.667 0 1 1 2.616 2.066l-7.5 9.5a1.667 1.667 0 0 1-2.39.235l-5.04-4.301-5.162 5.506z"/>
    </g>
</svg>
