<svg xmlns="http://www.w3.org/2000/svg" width="17" height="30" viewBox="0 0 17 30">
    <g fill="#29B38D" fill-rule="evenodd">
        <rect width="3.135" height="6.271" x="6.608" opacity=".5" rx="1.568"/>
        <rect width="3.135" height="7.838" x="6.608" y="21.947" opacity=".5" rx="1.568"/>
        <path d="M12.867 9.475c-.437-.556-1.008-.998-1.712-1.326-.705-.327-1.385-.491-2.04-.491-.338 0-.68.03-1.028.09-.348.059-.66.173-.939.342a2.32 2.32 0 0 0-.7.655c-.188.268-.282.61-.282 1.028 0 .357.074.655.223.893.149.238.367.447.655.626.288.178.63.342 1.028.491.397.15.844.303 1.34.462.715.238 1.46.501 2.234.79.774.287 1.48.67 2.115 1.146a6.02 6.02 0 0 1 1.578 1.772c.417.705.626 1.584.626 2.636 0 1.211-.224 2.259-.67 3.142a6.266 6.266 0 0 1-1.802 2.19A7.722 7.722 0 0 1 10.9 25.2c-.973.278-1.975.417-3.008.417-1.51 0-2.969-.263-4.378-.789C2.105 24.303.933 23.553 0 22.58l3.336-3.395c.516.635 1.196 1.166 2.04 1.593.844.427 1.683.64 2.517.64.377 0 .745-.04 1.102-.119.358-.079.67-.208.938-.387.268-.178.482-.417.64-.715.16-.297.239-.655.239-1.072 0-.397-.1-.735-.298-1.013-.198-.278-.481-.53-.849-.76a6.837 6.837 0 0 0-1.37-.625 70.403 70.403 0 0 0-1.861-.61 17.79 17.79 0 0 1-1.981-.775 6.63 6.63 0 0 1-1.728-1.146 5.31 5.31 0 0 1-1.22-1.698c-.309-.665-.463-1.474-.463-2.428 0-1.171.239-2.174.715-3.008a6.214 6.214 0 0 1 1.877-2.055 8.06 8.06 0 0 1 2.62-1.176 11.884 11.884 0 0 1 2.95-.373c1.191 0 2.407.219 3.648.655a9.394 9.394 0 0 1 3.262 1.937l-3.247 3.425z"/>
    </g>
</svg>
