<svg xmlns="http://www.w3.org/2000/svg" width="34" height="62" viewBox="0 0 34 62">
    <g fill="#29B38D" fill-rule="evenodd">
        <rect width="6.48" height="12.959" x="13.656" opacity=".5" rx="3.24"/>
        <rect width="6.48" height="16.199" x="13.656" y="45.357" opacity=".5" rx="3.24"/>
        <path d="M26.592 19.581c-.903-1.149-2.083-2.062-3.54-2.739-1.456-.677-2.862-1.016-4.216-1.016-.698 0-1.405.062-2.124.185a5.483 5.483 0 0 0-1.939.708c-.574.349-1.056.8-1.446 1.354-.39.554-.585 1.262-.585 2.124 0 .738.154 1.354.462 1.846.308.493.759.924 1.354 1.293.595.37 1.303.708 2.124 1.016.82.308 1.744.626 2.77.954 1.477.492 3.016 1.036 4.616 1.631 1.6.595 3.058 1.385 4.37 2.37a12.44 12.44 0 0 1 3.263 3.663c.862 1.456 1.293 3.272 1.293 5.447 0 2.504-.462 4.668-1.385 6.494-.923 1.827-2.165 3.335-3.724 4.525-1.56 1.19-3.345 2.072-5.356 2.647a22.52 22.52 0 0 1-6.217.861c-3.119 0-6.135-.543-9.048-1.63C4.35 50.225 1.929 48.676 0 46.665l6.894-7.018c1.067 1.314 2.473 2.411 4.217 3.294 1.744.882 3.478 1.323 5.201 1.323.78 0 1.54-.082 2.278-.246.739-.164 1.385-.431 1.939-.8.554-.37.995-.862 1.323-1.478.329-.615.493-1.354.493-2.216 0-.82-.205-1.518-.616-2.093-.41-.574-.995-1.097-1.754-1.57-.76-.471-1.703-.902-2.832-1.292a145.5 145.5 0 0 0-3.847-1.262 36.767 36.767 0 0 1-4.093-1.6 13.701 13.701 0 0 1-3.57-2.37c-1.047-.965-1.888-2.134-2.524-3.509-.637-1.375-.955-3.047-.955-5.017 0-2.42.493-4.493 1.478-6.217a12.842 12.842 0 0 1 3.878-4.247c1.6-1.108 3.406-1.919 5.417-2.432a24.56 24.56 0 0 1 6.094-.769c2.462 0 4.976.451 7.54 1.354 2.565.903 4.812 2.237 6.74 4.001l-6.709 7.08z"/>
    </g>
</svg>
