<svg xmlns="http://www.w3.org/2000/svg" width="70" height="54" viewBox="0 0 70 54">
    <g fill="none" fill-rule="evenodd">
        <path fill="#3897F0" d="M50 0v10c0 5.523 4.477 10 10 10h10v16c0 5.523-4.477 10-10 10H10C4.477 46 0 41.523 0 36V10C0 4.477 4.477 0 10 0h40z" opacity=".25"/>
        <g fill="#3897F0">
            <path d="M35 21.889A4.444 4.444 0 1 1 35 13a4.444 4.444 0 0 1 0 8.889z" opacity=".5"/>
            <path d="M25 32.11c.431-5.303 4.735-7.999 9.981-7.999 5.32 0 9.691 2.548 10.017 8 .013.217 0 .889-.835.889H25.808c-.278 0-.83-.6-.807-.89z"/>
        </g>
        <g fill="#FFAB31">
            <path d="M61 7.444A2.222 2.222 0 1 1 61 3a2.222 2.222 0 0 1 0 4.444z" opacity=".5"/>
            <path d="M56 12.555c.216-2.651 2.368-4 4.99-4 2.66 0 4.846 1.275 5.009 4 .006.11 0 .445-.418.445h-9.177c-.14 0-.415-.3-.404-.445z"/>
        </g>
        <rect width="36" height="4" x="17" y="50" fill="#3897F0" rx="2"/>
    </g>
</svg>
