<svg xmlns="http://www.w3.org/2000/svg" width="38" height="54" viewBox="0 0 38 54">
    <g fill="#FFAB31" fill-rule="evenodd">
        <circle cx="18.783" cy="18.783" r="18.783" opacity=".5"/>
        <path d="M14.087 49.304h9.391a4.696 4.696 0 0 1-9.391 0z" opacity=".5"/>
        <path d="M9.391 42.26a2.348 2.348 0 0 1 2.348-2.347 2.348 2.348 0 0 1 0-4.696h14.087a2.348 2.348 0 0 1 0 4.696 2.348 2.348 0 0 1 0 4.696 2.348 2.348 0 1 1 0 4.695H11.74a2.348 2.348 0 0 1 0-4.695 2.348 2.348 0 0 1-2.348-2.348z"/>
    </g>
</svg>
