<svg xmlns="http://www.w3.org/2000/svg" width="40" height="22" viewBox="0 0 40 22">
    <g fill="#FFAB31" fill-rule="evenodd">
        <path d="M30.972 5.26a3.506 3.506 0 1 1 0 7.012 3.506 3.506 0 0 1 0-7.013zm-22.206 0a3.506 3.506 0 1 1 0 7.012 3.506 3.506 0 0 1 0-7.013zM19.869 0a4.675 4.675 0 1 1 0 9.35 4.675 4.675 0 0 1 0-9.35z" opacity=".5"/>
        <path d="M7.874 14.025c.102 0 .203.001.304.003a14.53 14.53 0 0 0-2.814 7.009H.638c-.22 0-.656-.474-.637-.702.34-4.183 3.735-6.31 7.873-6.31zm23.96 0c4.196 0 7.644 2.01 7.901 6.311.01.171 0 .701-.658.701h-4.703a14.534 14.534 0 0 0-2.815-7.01l.274-.002zm-11.987-2.338c6.217 0 11.326 2.68 11.706 8.415.015.229 0 .935-.975.935H9.126c-.326 0-.971-.632-.944-.936.503-5.578 5.534-8.414 11.665-8.414z"/>
    </g>
</svg>
