<svg xmlns="http://www.w3.org/2000/svg" width="21" height="20" viewBox="0 0 21 20">
    <path fill="#000" fill-rule="evenodd" d="M4.767 6.505V20h-4.5V6.505h4.5zm11.05-.317c2.962 0 5.183 1.93 5.183 6.074V20h-4.501v-7.22c0-1.813-.651-3.05-2.28-3.05-1.244 0-1.985.834-2.31 1.64-.12.288-.149.69-.149 1.094V20H7.26s.06-12.228 0-13.494h4.501v1.911c.598-.919 1.668-2.229 4.058-2.229zM2.548 0c1.54 0 2.488 1.008 2.517 2.33 0 1.297-.978 2.333-2.547 2.333h-.029C.977 4.663 0 3.627 0 2.331 0 1.008 1.007 0 2.546 0z" opacity=".25"/>
</svg>
