<svg xmlns="http://www.w3.org/2000/svg" width="30" height="30" viewBox="0 0 30 30">
    <g fill="#29B38D" fill-rule="evenodd">
        <path d="M12.267 16.102l-3.005 3.006a1.417 1.417 0 1 0 2.004 2.003l3.005-3.005 1.002 1.002a2.833 2.833 0 0 1 0 4.007l-4.007 4.006a2.833 2.833 0 0 1-4.007 0l-4.007-4.006a2.833 2.833 0 0 1 0-4.007L7.259 15.1a2.833 2.833 0 0 1 4.007 0l1.001 1.001z" opacity=".5"/>
        <path d="M18.278 14.099l3.005-3.005a1.417 1.417 0 1 0-2.004-2.004l-3.005 3.005-1.001-1.001a2.833 2.833 0 0 1 0-4.007l4.006-4.007a2.833 2.833 0 0 1 4.007 0l4.007 4.007a2.833 2.833 0 0 1 0 4.007L23.286 15.1a2.833 2.833 0 0 1-4.007 0l-1.001-1.002z"/>
        <path d="M11.509.247c.782 0 1.416.634 1.416 1.416v2.834a1.417 1.417 0 1 1-2.833 0V1.663c0-.782.634-1.416 1.417-1.416zM.66 11.094c0-.783.635-1.417 1.417-1.417h2.833a1.417 1.417 0 1 1 0 2.833H2.078a1.417 1.417 0 0 1-1.417-1.416zm3.592-7.012a1.417 1.417 0 0 1 2.004 0L8.26 6.085A1.417 1.417 0 0 1 6.257 8.09L4.253 6.085a1.417 1.417 0 0 1 0-2.003zM29.955 18.693c0-.783-.634-1.417-1.417-1.417h-2.833a1.417 1.417 0 1 0 0 2.833h2.833c.783 0 1.417-.634 1.417-1.416zM19.108 29.54c.782 0 1.416-.634 1.416-1.417V25.29a1.417 1.417 0 1 0-2.833 0v2.833c0 .783.634 1.417 1.417 1.417zm7.012-3.592a1.417 1.417 0 0 0 0-2.004l-2.004-2.003a1.417 1.417 0 0 0-2.003 2.003l2.003 2.004c.554.553 1.45.553 2.004 0z" opacity=".5"/>
    </g>
</svg>
