<svg xmlns="http://www.w3.org/2000/svg" width="62" height="48" viewBox="0 0 62 48">
    <g fill="#FFAB31" fill-rule="evenodd">
        <path d="M23.978 0c5.885 0 10.657 4.771 10.657 10.657 0 5.885-4.772 10.657-10.657 10.657-5.886 0-10.657-4.772-10.657-10.657C13.321 4.77 18.092 0 23.978 0zM50.62 0a2.664 2.664 0 0 1 2.664 2.664l-.001 5.328h5.33a2.664 2.664 0 1 1 0 5.329l-5.33-.001.001 5.33a2.664 2.664 0 0 1-5.328 0l-.001-5.33-5.328.001a2.664 2.664 0 0 1 0-5.328l5.328-.001V2.664A2.664 2.664 0 0 1 50.62 0z" opacity=".5"/>
        <path d="M.002 45.822c1.032-12.715 11.353-19.18 23.931-19.18 12.756 0 23.236 6.11 24.017 19.182.031.521 0 2.132-2.001 2.132H1.939c-.669 0-1.994-1.441-1.937-2.134z"/>
    </g>
</svg>
