<svg xmlns="http://www.w3.org/2000/svg" width="60" height="45" viewBox="0 0 60 45">
    <g fill="#3897F0" fill-rule="evenodd">
        <path d="M45 12.5a7.5 7.5 0 1 1 0 15 7.5 7.5 0 0 1 0-15zM22.5 0c5.523 0 10 4.477 10 10s-4.477 10-10 10-10-4.477-10-10 4.477-10 10-10z" opacity=".5"/>
        <path d="M44.003 30.001L43.72 30c8.645 0 15.747 4.3 16.276 13.5.021.367 0 1.5-1.356 1.5H49a24.89 24.89 0 0 0-4.997-14.999zM22.458 25c11.97 0 21.804 5.733 22.537 18 .029.489 0 2-1.878 2H1.819c-.627 0-1.87-1.352-1.817-2.002C.97 31.066 10.655 25 22.458 25z"/>
    </g>
</svg>
