<svg xmlns="http://www.w3.org/2000/svg" width="18" height="18" viewBox="0 0 18 18">
    <g fill-rule="evenodd" opacity=".5">
        <path d="M0 10.286c0-.429.429-.857.857-.857.429 0 .857.428.857.857v4.285c0 .947.768 1.715 1.715 1.715h10.285c.947 0 1.715-.768 1.715-1.715v-4.285c0-.474.383-.857.857-.857.473 0 .857.383.857.857v4.285c0 1.894-1.535 3.429-3.429 3.429H3.43C1.535 18 0 16.465 0 14.571v-4.285z"/>
        <rect width="1.714" height="12" x="7.714" y=".857" rx=".857"/>
        <path d="M8.602 2.038L4.892 5.75c-.335.335-.878.335-1.212 0-.335-.335-.335-.877 0-1.212L7.965.25c.323-.322.841-.336 1.18-.031l4.286 3.857c.351.317.38.859.063 1.21-.316.353-.858.381-1.21.064L8.602 2.038z"/>
    </g>
</svg>
