<svg xmlns="http://www.w3.org/2000/svg" width="30" height="30" viewBox="0 0 30 30">
    <g fill="#FFAB31" fill-rule="evenodd">
        <path d="M23.668 9.044l4.796.707c.98.144 1.66 1.068 1.517 2.062-.057.396-.24.762-.523 1.042l-5.928 5.86 1.4 8.275c.167.99-.489 1.931-1.465 2.101a1.772 1.772 0 0 1-1.138-.183L15 25.001l-7.327 3.907a1.781 1.781 0 0 1-2.423-.764 1.838 1.838 0 0 1-.194-.642c.733-9.907 8.683-17.805 18.612-18.458z"/>
        <path d="M15.794.188c.354.177.64.468.815.827l3.047 6.263C13.445 8.324 8.206 12.233 5.342 17.6l-4.8-4.745a1.838 1.838 0 0 1-.033-2.573 1.785 1.785 0 0 1 1.027-.531l8.192-1.207 3.663-7.53a1.782 1.782 0 0 1 2.403-.826z" opacity=".5"/>
    </g>
</svg>
