<svg xmlns="http://www.w3.org/2000/svg" width="20" height="20" viewBox="0 0 20 20">
    <g fill="none" fill-rule="evenodd">
        <path fill="#3897F0" d="M10 18.2l-2.817 1.395-1.616-2.697-3.124-.35.098-3.142-2.44-1.983 1.782-2.59-.98-2.987 2.9-1.216.79-3.043 3.097.545L10 0l2.31 2.132 3.096-.545.791 3.043 2.9 1.216-.98 2.987 1.781 2.59-2.439 1.983.098 3.143-3.124.35-1.616 2.696z"/>
        <path fill="#FFF" fill-rule="nonzero" d="M12.623 7.58a.478.478 0 0 1 .644-.05.41.41 0 0 1 .053.605L9.434 12.42a.478.478 0 0 1-.652.043L6.725 10.75a.41.41 0 0 1-.038-.605.479.479 0 0 1 .645-.036l1.708 1.423 3.583-3.951z"/>
    </g>
</svg>
